<svg width="174" height="64" viewBox="0 0 174 64" fill="none" xmlns="http://www.w3.org/2000/svg">
<path d="M1 32C1 14.8792 14.8792 1 32 1H142C159.121 1 173 14.8792 173 32C173 49.1208 159.121 63 142 63H32C14.8792 63 1 49.1208 1 32Z" fill="#111111"/>
<path d="M1 32C1 14.8792 14.8792 1 32 1H142C159.121 1 173 14.8792 173 32C173 49.1208 159.121 63 142 63H32C14.8792 63 1 49.1208 1 32Z" stroke="#2D2D2D" stroke-width="2"/>
<path d="M41.4102 19.0117C40.2324 20.4355 38.2637 21.4902 36.6992 21.4902C36.5059 21.4902 36.3301 21.4551 36.2246 21.4375C36.207 21.3496 36.1543 21.0859 36.1543 20.8047C36.1543 19.0117 37.0684 17.2188 38.0703 16.0938C39.3184 14.6172 41.4277 13.5273 43.1855 13.457C43.2207 13.6504 43.2383 13.8965 43.2383 14.1426C43.2383 15.9355 42.4824 17.7109 41.4102 19.0117ZM42.6406 21.8594C43.625 21.8594 47.1934 21.9648 49.5312 25.3223C49.3203 25.4805 45.7871 27.4844 45.7871 31.9492C45.7871 37.0996 50.2871 38.9453 50.4277 38.9805C50.4102 39.1035 49.707 41.4766 48.0547 43.9199C46.5605 46.0469 44.9961 48.209 42.6406 48.209C40.2676 48.209 39.6523 46.8203 36.9453 46.8203C34.2734 46.8203 33.3242 48.2441 31.1797 48.2441C29 48.2441 27.4883 46.2578 25.7656 43.832C23.7441 40.9668 22.127 36.5195 22.127 32.3008C22.127 25.5508 26.5215 21.9648 30.8633 21.9648C33.1484 21.9648 35.0469 23.459 36.5059 23.459C37.877 23.459 40.0215 21.8594 42.6406 21.8594Z" fill="white"/>
<path d="M60.696 28V19.6H63.912C66.504 19.6 68.232 21.28 68.232 23.8C68.232 26.32 66.504 28 63.912 28H60.696ZM62.244 26.764H63.876C65.544 26.764 66.648 25.576 66.648 23.8C66.648 22.024 65.544 20.836 63.876 20.836H62.244V26.764ZM72.3296 28.18C70.4936 28.18 69.1736 26.848 69.1736 24.976C69.1736 23.116 70.4936 21.784 72.3296 21.784C74.1536 21.784 75.4736 23.116 75.4736 24.976C75.4736 26.848 74.1536 28.18 72.3296 28.18ZM70.6736 24.976C70.6736 26.116 71.3456 26.92 72.3296 26.92C73.3016 26.92 73.9736 26.116 73.9736 24.976C73.9736 23.848 73.3016 23.044 72.3296 23.044C71.3456 23.044 70.6736 23.848 70.6736 24.976ZM77.8297 28L75.8017 21.964H77.4097L78.7297 26.296L79.9777 21.964H81.5977L82.8577 26.296L84.1657 21.964H85.7497L83.7217 28H82.0897L80.7817 23.644L79.4857 28H77.8297ZM86.569 28V21.964H88.057L88.021 23.248C88.285 22.36 88.957 21.82 89.929 21.82C91.237 21.82 92.113 22.792 92.113 24.28V28H90.625V24.508C90.625 23.572 90.181 23.02 89.389 23.02C88.537 23.02 88.057 23.656 88.057 24.772V28H86.569ZM95.8753 27.928C94.5553 28.264 93.2593 27.964 93.2593 26.116V19.6H94.7473V25.816C94.7473 26.632 95.1553 26.86 95.8633 26.668L95.8753 27.928ZM99.6812 28.18C97.8452 28.18 96.5252 26.848 96.5252 24.976C96.5252 23.116 97.8452 21.784 99.6812 21.784C101.505 21.784 102.825 23.116 102.825 24.976C102.825 26.848 101.505 28.18 99.6812 28.18ZM98.0252 24.976C98.0252 26.116 98.6972 26.92 99.6812 26.92C100.653 26.92 101.325 26.116 101.325 24.976C101.325 23.848 100.653 23.044 99.6812 23.044C98.6972 23.044 98.0252 23.848 98.0252 24.976ZM105.558 28.132C104.418 28.132 103.602 27.484 103.602 26.44C103.602 25.312 104.574 24.676 106.362 24.472L107.478 24.352V24.172C107.478 23.44 107.07 22.984 106.374 22.984C105.738 22.984 105.282 23.38 105.222 24.088L103.782 24.052C103.854 22.72 104.934 21.784 106.422 21.784C107.91 21.784 108.954 22.768 108.954 24.208V26.212C108.954 26.86 109.014 27.556 109.098 28H107.646C107.586 27.736 107.55 27.46 107.55 26.98C107.226 27.676 106.458 28.132 105.558 28.132ZM105.09 26.308C105.09 26.836 105.498 27.1 106.026 27.1C106.854 27.1 107.502 26.464 107.502 25.552V25.252L106.47 25.372C105.594 25.48 105.09 25.72 105.09 26.308ZM112.715 28.144C111.095 28.144 109.943 26.836 109.943 24.976C109.943 23.128 111.095 21.82 112.715 21.82C113.555 21.82 114.227 22.168 114.683 22.792V19.6H116.171V26.668V28H114.683V27.172C114.227 27.796 113.555 28.144 112.715 28.144ZM111.443 24.976C111.443 26.104 112.151 26.92 113.111 26.92C114.083 26.92 114.767 26.128 114.767 24.976C114.767 23.836 114.083 23.044 113.111 23.044C112.151 23.044 111.443 23.86 111.443 24.976ZM122.615 28.18C120.779 28.18 119.459 26.848 119.459 24.976C119.459 23.116 120.779 21.784 122.615 21.784C124.439 21.784 125.759 23.116 125.759 24.976C125.759 26.848 124.439 28.18 122.615 28.18ZM120.959 24.976C120.959 26.116 121.631 26.92 122.615 26.92C123.587 26.92 124.259 26.116 124.259 24.976C124.259 23.848 123.587 23.044 122.615 23.044C121.631 23.044 120.959 23.848 120.959 24.976ZM126.776 28V21.964H128.264L128.228 23.248C128.492 22.36 129.164 21.82 130.136 21.82C131.444 21.82 132.32 22.792 132.32 24.28V28H130.832V24.508C130.832 23.572 130.388 23.02 129.596 23.02C128.744 23.02 128.264 23.656 128.264 24.772V28H126.776ZM139.328 27.952C138.008 28.324 136.556 27.952 136.556 25.984V23.2H135.464V21.964H136.556V20.44H138.044V21.964H139.496V23.2H138.044V25.864C138.044 26.824 138.68 26.896 139.316 26.704L139.328 27.952ZM140.499 28V19.6H141.987V23.128C142.275 22.312 142.935 21.82 143.859 21.82C145.167 21.82 146.043 22.792 146.043 24.28V28H144.555V24.508C144.555 23.572 144.111 23.02 143.319 23.02C142.467 23.02 141.987 23.656 141.987 24.772V28H140.499ZM150.129 28.216C148.317 28.216 147.021 26.86 147.021 24.976C147.021 23.104 148.317 21.748 150.105 21.748C152.193 21.748 153.309 23.548 153.045 25.432H148.521C148.569 26.368 149.229 27.052 150.141 27.052C150.861 27.052 151.461 26.644 151.665 26.032L152.937 26.224C152.697 27.34 151.593 28.216 150.129 28.216ZM148.533 24.316H151.605C151.605 23.512 150.993 22.864 150.105 22.864C149.277 22.864 148.641 23.452 148.533 24.316Z" fill="white"/>
<path d="M61.28 50L66.36 36H70.4L75.48 50H72.16L71.02 46.7H65.54L64.38 50H61.28ZM66.44 44.18H70.14L68.3 38.88L66.44 44.18ZM76.5861 53.8V39.86H79.6661V40.98C80.3861 40.12 81.4261 39.64 82.7061 39.64C85.4061 39.64 87.3261 41.82 87.3261 44.92C87.3261 48.04 85.4061 50.22 82.7061 50.22C81.4261 50.22 80.3861 49.74 79.6661 48.86V53.8H76.5861ZM79.5061 44.92C79.5061 46.54 80.4861 47.68 81.8661 47.68C83.2261 47.68 84.2261 46.52 84.2261 44.92C84.2261 43.32 83.2261 42.18 81.8661 42.18C80.4861 42.18 79.5061 43.32 79.5061 44.92ZM88.7345 53.8V39.86H91.8145V40.98C92.5345 40.12 93.5745 39.64 94.8545 39.64C97.5545 39.64 99.4745 41.82 99.4745 44.92C99.4745 48.04 97.5545 50.22 94.8545 50.22C93.5745 50.22 92.5345 49.74 91.8145 48.86V53.8H88.7345ZM91.6545 44.92C91.6545 46.54 92.6345 47.68 94.0145 47.68C95.3745 47.68 96.3745 46.52 96.3745 44.92C96.3745 43.32 95.3745 42.18 94.0145 42.18C92.6345 42.18 91.6545 43.32 91.6545 44.92ZM108.799 50.38C106.079 50.38 104.219 49 104.059 46.88L106.899 46.76C106.999 47.66 107.759 48.24 108.799 48.24C109.639 48.24 110.319 47.88 110.319 47.26C110.319 46.74 109.839 46.48 108.959 46.34L107.519 46.12C105.279 45.8 104.239 44.56 104.239 42.96C104.239 40.86 106.039 39.48 108.599 39.48C111.119 39.48 112.919 40.86 113.079 42.96L110.299 43.1C110.219 42.24 109.519 41.62 108.559 41.62C107.799 41.62 107.159 42.02 107.159 42.62C107.159 43.1 107.579 43.38 108.159 43.48L109.619 43.7C111.939 44.04 113.299 45.14 113.299 46.94C113.299 49 111.439 50.38 108.799 50.38ZM120.934 49.94C118.474 50.54 115.894 49.82 115.894 46.34V42.42H114.194V39.86H115.894V37.3H118.974V39.86H121.234V42.42H118.974V46.1C118.974 47.52 119.934 47.62 120.934 47.38V49.94ZM127.683 50.3C124.543 50.3 122.263 48.06 122.263 44.94C122.263 41.8 124.543 39.56 127.683 39.56C130.843 39.56 133.123 41.8 133.123 44.94C133.123 48.06 130.843 50.3 127.683 50.3ZM125.363 44.94C125.363 46.56 126.323 47.7 127.683 47.7C129.063 47.7 130.023 46.56 130.023 44.94C130.023 43.3 129.063 42.16 127.683 42.16C126.323 42.16 125.363 43.3 125.363 44.94ZM134.496 50V39.86H137.576L137.496 42.38C137.976 40.16 139.596 39.48 141.236 39.86V42.92C139.496 42.62 137.576 43.18 137.576 45.76V50H134.496ZM147.348 50.38C144.248 50.38 142.028 48.08 142.028 44.94C142.028 41.78 144.248 39.48 147.328 39.48C150.808 39.48 152.868 42.42 152.348 45.92H145.148C145.248 47.1 146.148 47.98 147.388 47.98C148.388 47.98 149.248 47.4 149.548 46.58L152.168 46.96C151.788 48.84 149.908 50.38 147.348 50.38ZM145.168 43.62H149.368C149.368 42.62 148.528 41.78 147.328 41.78C146.188 41.78 145.328 42.52 145.168 43.62Z" fill="white"/>
</svg>
