<svg width="170" height="64" viewBox="0 0 170 64" fill="none" xmlns="http://www.w3.org/2000/svg">
<path d="M1 32C1 14.8792 14.8792 1 32 1H137.909C155.03 1 168.909 14.8792 168.909 32C168.909 49.1208 155.03 63 137.909 63H32C14.8791 63 1 49.1208 1 32Z" fill="#111111"/>
<path d="M1 32C1 14.8792 14.8792 1 32 1H137.909C155.03 1 168.909 14.8792 168.909 32C168.909 49.1208 155.03 63 137.909 63H32C14.8791 63 1 49.1208 1 32Z" stroke="#2D2D2D" stroke-width="2"/>
<path d="M20.5605 17.2932C20.2055 17.656 20 18.221 20 18.9526V45.0483C20 45.7799 20.2055 46.3448 20.5605 46.7076L20.6481 46.7873L35.6256 32.17V31.8249L20.6481 17.2076L20.5605 17.2932Z" fill="url(#paint0_linear_10_4078)"/>
<path d="M40.6129 37.045L35.626 32.1702V31.825L40.619 26.9501L40.7308 27.0136L46.6438 30.2984C48.3313 31.2306 48.3313 32.7646 46.6438 33.7027L40.7308 36.9816L40.6129 37.045Z" fill="url(#paint1_linear_10_4078)"/>
<path d="M40.7304 36.9814L35.6257 31.9973L20.5605 46.7075C21.121 47.2828 22.035 47.3521 23.0744 46.7768L40.7304 36.9814Z" fill="url(#paint2_linear_10_4078)"/>
<path d="M40.7304 27.0134L23.0744 17.2179C22.035 16.6486 21.121 16.7179 20.5605 17.2932L35.6257 31.9974L40.7304 27.0134Z" fill="url(#paint3_linear_10_4078)"/>
<path d="M56.6052 28V19.6H59.8212C62.4132 19.6 64.1412 21.28 64.1412 23.8C64.1412 26.32 62.4132 28 59.8212 28H56.6052ZM58.1532 26.764H59.7852C61.4532 26.764 62.5572 25.576 62.5572 23.8C62.5572 22.024 61.4532 20.836 59.7852 20.836H58.1532V26.764ZM68.2388 28.18C66.4028 28.18 65.0828 26.848 65.0828 24.976C65.0828 23.116 66.4028 21.784 68.2388 21.784C70.0628 21.784 71.3828 23.116 71.3828 24.976C71.3828 26.848 70.0628 28.18 68.2388 28.18ZM66.5828 24.976C66.5828 26.116 67.2548 26.92 68.2388 26.92C69.2108 26.92 69.8828 26.116 69.8828 24.976C69.8828 23.848 69.2108 23.044 68.2388 23.044C67.2548 23.044 66.5828 23.848 66.5828 24.976ZM73.7388 28L71.7108 21.964H73.3188L74.6388 26.296L75.8868 21.964H77.5068L78.7668 26.296L80.0748 21.964H81.6588L79.6308 28H77.9988L76.6908 23.644L75.3948 28H73.7388ZM82.4782 28V21.964H83.9662L83.9302 23.248C84.1942 22.36 84.8662 21.82 85.8382 21.82C87.1462 21.82 88.0222 22.792 88.0222 24.28V28H86.5342V24.508C86.5342 23.572 86.0902 23.02 85.2982 23.02C84.4462 23.02 83.9662 23.656 83.9662 24.772V28H82.4782ZM91.7845 27.928C90.4645 28.264 89.1685 27.964 89.1685 26.116V19.6H90.6565V25.816C90.6565 26.632 91.0645 26.86 91.7725 26.668L91.7845 27.928ZM95.5904 28.18C93.7544 28.18 92.4344 26.848 92.4344 24.976C92.4344 23.116 93.7544 21.784 95.5904 21.784C97.4144 21.784 98.7344 23.116 98.7344 24.976C98.7344 26.848 97.4144 28.18 95.5904 28.18ZM93.9344 24.976C93.9344 26.116 94.6064 26.92 95.5904 26.92C96.5624 26.92 97.2344 26.116 97.2344 24.976C97.2344 23.848 96.5624 23.044 95.5904 23.044C94.6064 23.044 93.9344 23.848 93.9344 24.976ZM101.468 28.132C100.328 28.132 99.5116 27.484 99.5116 26.44C99.5116 25.312 100.484 24.676 102.272 24.472L103.388 24.352V24.172C103.388 23.44 102.98 22.984 102.284 22.984C101.648 22.984 101.192 23.38 101.132 24.088L99.6916 24.052C99.7636 22.72 100.844 21.784 102.332 21.784C103.82 21.784 104.864 22.768 104.864 24.208V26.212C104.864 26.86 104.924 27.556 105.008 28H103.556C103.496 27.736 103.46 27.46 103.46 26.98C103.136 27.676 102.368 28.132 101.468 28.132ZM101 26.308C101 26.836 101.408 27.1 101.936 27.1C102.764 27.1 103.412 26.464 103.412 25.552V25.252L102.38 25.372C101.504 25.48 101 25.72 101 26.308ZM108.624 28.144C107.004 28.144 105.852 26.836 105.852 24.976C105.852 23.128 107.004 21.82 108.624 21.82C109.464 21.82 110.136 22.168 110.592 22.792V19.6H112.08V26.668V28H110.592V27.172C110.136 27.796 109.464 28.144 108.624 28.144ZM107.352 24.976C107.352 26.104 108.06 26.92 109.02 26.92C109.992 26.92 110.676 26.128 110.676 24.976C110.676 23.836 109.992 23.044 109.02 23.044C108.06 23.044 107.352 23.86 107.352 24.976ZM118.524 28.18C116.688 28.18 115.368 26.848 115.368 24.976C115.368 23.116 116.688 21.784 118.524 21.784C120.348 21.784 121.668 23.116 121.668 24.976C121.668 26.848 120.348 28.18 118.524 28.18ZM116.868 24.976C116.868 26.116 117.54 26.92 118.524 26.92C119.496 26.92 120.168 26.116 120.168 24.976C120.168 23.848 119.496 23.044 118.524 23.044C117.54 23.044 116.868 23.848 116.868 24.976ZM122.685 28V21.964H124.173L124.137 23.248C124.401 22.36 125.073 21.82 126.045 21.82C127.353 21.82 128.229 22.792 128.229 24.28V28H126.741V24.508C126.741 23.572 126.297 23.02 125.505 23.02C124.653 23.02 124.173 23.656 124.173 24.772V28H122.685ZM135.237 27.952C133.917 28.324 132.465 27.952 132.465 25.984V23.2H131.373V21.964H132.465V20.44H133.953V21.964H135.405V23.2H133.953V25.864C133.953 26.824 134.589 26.896 135.225 26.704L135.237 27.952ZM136.408 28V19.6H137.896V23.128C138.184 22.312 138.844 21.82 139.768 21.82C141.076 21.82 141.952 22.792 141.952 24.28V28H140.464V24.508C140.464 23.572 140.02 23.02 139.228 23.02C138.376 23.02 137.896 23.656 137.896 24.772V28H136.408ZM146.038 28.216C144.226 28.216 142.93 26.86 142.93 24.976C142.93 23.104 144.226 21.748 146.014 21.748C148.102 21.748 149.218 23.548 148.954 25.432H144.43C144.478 26.368 145.138 27.052 146.05 27.052C146.77 27.052 147.37 26.644 147.574 26.032L148.846 26.224C148.606 27.34 147.502 28.216 146.038 28.216ZM144.442 24.316H147.514C147.514 23.512 146.902 22.864 146.014 22.864C145.186 22.864 144.55 23.452 144.442 24.316Z" fill="white"/>
<path d="M57.1892 50L62.2692 36H66.3092L71.3892 50H68.0692L66.9292 46.7H61.4492L60.2892 50H57.1892ZM62.3492 44.18H66.0492L64.2092 38.88L62.3492 44.18ZM72.4953 53.8V39.86H75.5753V40.98C76.2953 40.12 77.3353 39.64 78.6153 39.64C81.3153 39.64 83.2353 41.82 83.2353 44.92C83.2353 48.04 81.3153 50.22 78.6153 50.22C77.3353 50.22 76.2953 49.74 75.5753 48.86V53.8H72.4953ZM75.4153 44.92C75.4153 46.54 76.3953 47.68 77.7753 47.68C79.1353 47.68 80.1353 46.52 80.1353 44.92C80.1353 43.32 79.1353 42.18 77.7753 42.18C76.3953 42.18 75.4153 43.32 75.4153 44.92ZM84.6437 53.8V39.86H87.7237V40.98C88.4437 40.12 89.4837 39.64 90.7637 39.64C93.4637 39.64 95.3837 41.82 95.3837 44.92C95.3837 48.04 93.4637 50.22 90.7637 50.22C89.4837 50.22 88.4437 49.74 87.7237 48.86V53.8H84.6437ZM87.5637 44.92C87.5637 46.54 88.5437 47.68 89.9237 47.68C91.2837 47.68 92.2837 46.52 92.2837 44.92C92.2837 43.32 91.2837 42.18 89.9237 42.18C88.5437 42.18 87.5637 43.32 87.5637 44.92ZM104.708 50.38C101.988 50.38 100.128 49 99.9678 46.88L102.808 46.76C102.908 47.66 103.668 48.24 104.708 48.24C105.548 48.24 106.228 47.88 106.228 47.26C106.228 46.74 105.748 46.48 104.868 46.34L103.428 46.12C101.188 45.8 100.148 44.56 100.148 42.96C100.148 40.86 101.948 39.48 104.508 39.48C107.028 39.48 108.828 40.86 108.988 42.96L106.208 43.1C106.128 42.24 105.428 41.62 104.468 41.62C103.708 41.62 103.068 42.02 103.068 42.62C103.068 43.1 103.488 43.38 104.068 43.48L105.528 43.7C107.848 44.04 109.208 45.14 109.208 46.94C109.208 49 107.348 50.38 104.708 50.38ZM116.843 49.94C114.383 50.54 111.803 49.82 111.803 46.34V42.42H110.103V39.86H111.803V37.3H114.883V39.86H117.143V42.42H114.883V46.1C114.883 47.52 115.843 47.62 116.843 47.38V49.94ZM123.592 50.3C120.452 50.3 118.172 48.06 118.172 44.94C118.172 41.8 120.452 39.56 123.592 39.56C126.752 39.56 129.032 41.8 129.032 44.94C129.032 48.06 126.752 50.3 123.592 50.3ZM121.272 44.94C121.272 46.56 122.232 47.7 123.592 47.7C124.972 47.7 125.932 46.56 125.932 44.94C125.932 43.3 124.972 42.16 123.592 42.16C122.232 42.16 121.272 43.3 121.272 44.94ZM130.405 50V39.86H133.485L133.405 42.38C133.885 40.16 135.505 39.48 137.145 39.86V42.92C135.405 42.62 133.485 43.18 133.485 45.76V50H130.405ZM143.257 50.38C140.157 50.38 137.937 48.08 137.937 44.94C137.937 41.78 140.157 39.48 143.237 39.48C146.717 39.48 148.777 42.42 148.257 45.92H141.057C141.157 47.1 142.057 47.98 143.297 47.98C144.297 47.98 145.157 47.4 145.457 46.58L148.077 46.96C147.697 48.84 145.817 50.38 143.257 50.38ZM141.077 43.62H145.277C145.277 42.62 144.437 41.78 143.237 41.78C142.097 41.78 141.237 42.52 141.077 43.62Z" fill="white"/>
<defs>
<linearGradient id="paint0_linear_10_4078" x1="34.2958" y1="45.32" x2="14.4982" y2="25.0428" gradientUnits="userSpaceOnUse">
<stop stop-color="#00A0FF"/>
<stop offset="0.0066" stop-color="#00A1FF"/>
<stop offset="0.2601" stop-color="#00BEFF"/>
<stop offset="0.5122" stop-color="#00D2FF"/>
<stop offset="0.7604" stop-color="#00DFFF"/>
<stop offset="1" stop-color="#00E3FF"/>
</linearGradient>
<linearGradient id="paint1_linear_10_4078" x1="48.8412" y1="31.9959" x2="19.597" y2="31.9959" gradientUnits="userSpaceOnUse">
<stop stop-color="#FFE000"/>
<stop offset="0.4087" stop-color="#FFBD00"/>
<stop offset="0.7754" stop-color="#FFA500"/>
<stop offset="1" stop-color="#FF9C00"/>
</linearGradient>
<linearGradient id="paint2_linear_10_4078" x1="37.9546" y1="29.2879" x2="11.1075" y2="1.7903" gradientUnits="userSpaceOnUse">
<stop stop-color="#FF3A44"/>
<stop offset="1" stop-color="#C31162"/>
</linearGradient>
<linearGradient id="paint3_linear_10_4078" x1="16.7683" y1="55.3895" x2="28.7568" y2="43.1107" gradientUnits="userSpaceOnUse">
<stop stop-color="#32A071"/>
<stop offset="0.0685" stop-color="#2DA771"/>
<stop offset="0.4762" stop-color="#15CF74"/>
<stop offset="0.8009" stop-color="#06E775"/>
<stop offset="1" stop-color="#00F076"/>
</linearGradient>
</defs>
</svg>
