<svg width="111" height="24" viewBox="0 0 111 24" fill="none" xmlns="http://www.w3.org/2000/svg">
<path d="M0.143311 0.279236H33.3691L19.8556 23.7635H15.1666L8.94765 8.29513H13.7194L18.1729 19.0557L26.4551 4.02461H2.16652L0.143311 0.279236Z" fill="#81EBAB"/>
<path d="M77.1865 12.5541C77.5023 11.6664 77.9589 10.89 78.5583 10.2306C79.1578 9.57124 79.8684 9.0609 80.687 8.7015L80.6887 8.70072L80.6904 8.70004C81.5319 8.33937 82.4565 8.16235 83.4584 8.16235C84.5019 8.16235 85.423 8.36911 86.2056 8.8011C86.8673 9.15775 87.4219 9.64812 87.8676 10.2663L91.2301 7.58616C90.5907 6.62011 89.6761 5.86182 88.4684 5.31443C87.1304 4.70797 85.5849 4.39923 83.8225 4.39923C82.0373 4.39923 80.4176 4.68142 78.9586 5.23967C77.5149 5.79918 76.2756 6.59068 75.2353 7.61299L75.234 7.61429L75.2327 7.61556C74.192 8.62032 73.3835 9.81407 72.8071 11.2011C72.2324 12.5839 71.9426 14.0976 71.9426 15.747C71.9426 17.3774 72.3268 18.8032 73.0849 20.0377C73.8433 21.2542 74.9208 22.2116 76.3317 22.9083C77.7582 23.6034 79.4391 23.958 81.3859 23.958C83.0971 23.958 84.6423 23.6943 86.0264 23.1733C87.2847 22.6826 88.4153 21.8807 89.4164 20.756L86.7241 18.1103C86.0796 18.7865 85.3732 19.296 84.6046 19.6281C83.7495 20.0057 82.8528 20.1948 81.9181 20.1948C80.8792 20.1948 79.9556 20.0086 79.1597 19.6208L79.1539 19.618L79.1482 19.615C78.3751 19.2081 77.7665 18.643 77.3333 17.9209L77.3297 17.915L77.3263 17.9089C76.9141 17.1669 76.714 16.3209 76.714 15.3829C76.714 14.3696 76.8699 13.4254 77.1865 12.5541Z" fill="#81EBAB"/>
<path fill-rule="evenodd" clip-rule="evenodd" d="M32.9304 19.7577H41.9273L42.713 23.5666H47.3533L42.3948 4.79205H36.7624L25.9114 23.5666H30.7364L32.9304 19.7577ZM39.5551 8.25724L41.2551 16.4987H34.8077L39.5551 8.25724Z" fill="#81EBAB"/>
<path d="M64.2483 16.2314L66.5313 4.79205H71.118L67.3631 23.5666H63.3727L56.4611 12.0963L54.1719 23.5666H49.5852L53.3401 4.79205H57.3309L64.2483 16.2314Z" fill="#81EBAB"/>
<path d="M96.922 20.1116L97.7962 15.6969H106.524L107.173 12.3818H98.452L99.2705 8.2471H109.159L109.859 4.79205H95.3585L91.6042 23.5666H106.472L107.195 20.1116H96.922Z" fill="#81EBAB"/>
</svg>
